{
  "accessors": [
    {
      "bufferView": 2,
      "componentType": 5126,
      "count": 65532,
      "max": [
        0.3389450013637543,
        1.1619869470596313,
        1.2637439966201782
      ],
      "min": [
        -0.32736098766326904,
        -1.1333229541778564,
        0.0010079999919980764
      ],
      "type": "VEC3"
    },
    {
      "bufferView": 2,
      "byteOffset": 786384,
      "componentType": 5126,
      "count": 65532,
      "max": [
        0.9999964237213135,
        0.9999872446060181,
        0.9999916553497314
      ],
      "min": [
        -0.9999892711639404,
        -0.9998605251312256,
        -0.9999983310699463
      ],
      "type": "VEC3"
    },
    {
      "bufferView": 3,
      "componentType": 5126,
      "count": 65532,
      "max": [
        0.9997665882110596,
        0.9999945163726807,
        0.9998236894607544,
        1.0
      ],
      "min": [
        -0.9999781847000122,
        -0.9998958706855774,
        -0.9999985098838806,
        -1.0
      ],
      "type": "VEC4"
    },
    {
      "bufferView": 1,
      "componentType": 5126,
      "count": 65532,
      "max": [
        0.9932609796524048,
        0.9999809861183167
      ],
      "min": [
        2.099999983329326e-05,
        2.9000000722589903e-05
      ],
      "type": "VEC2"
    },
    {
      "bufferView": 0,
      "componentType": 5125,
      "count": 369024,
      "type": "SCALAR"
    },
    {
      "bufferView": 2,
      "byteOffset": 1572768,
      "componentType": 5126,
      "count": 4961,
      "max": [
        0.3389450013637543,
        1.0901180505752563,
        1.2574490308761597
      ],
      "min": [
        -0.3180670142173767,
        -0.972877025604248,
        0.01945899985730648
      ],
      "type": "VEC3"
    },
    {
      "bufferView": 2,
      "byteOffset": 1632300,
      "componentType": 5126,
      "count": 4961,
      "max": [
        0.9997350573539734,
        0.9995068907737732,
        0.9997649788856506
      ],
      "min": [
        -0.9997683167457581,
        -0.9854826927185059,
        -0.9999916553497314
      ],
      "type": "VEC3"
    },
    {
      "bufferView": 3,
      "byteOffset": 1048512,
      "componentType": 5126,
      "count": 4961,
      "max": [
        0.9910103678703308,
        0.9999117851257324,
        0.9982175827026367,
        1.0
      ],
      "min": [
        -0.9974865317344666,
        -0.9988172650337219,
        -0.9999528527259827,
        1.0
      ],
      "type": "VEC4"
    },
    {
      "bufferView": 1,
      "byteOffset": 524256,
      "componentType": 5126,
      "count": 4961,
      "max": [
        0.9894649982452393,
        0.9979450106620789
      ],
      "min": [
        0.026938000693917274,
        0.0009609999833628535
      ],
      "type": "VEC2"
    },
    {
      "bufferView": 0,
      "byteOffset": 1476096,
      "componentType": 5125,
      "count": 15195,
      "type": "SCALAR"
    }
  ],
  "asset": {
    "extras": {
      "author": "Lassi Kaukonen (https://sketchfab.com/thesidekick)",
      "license": "CC-BY-4.0 (http://creativecommons.org/licenses/by/4.0/)",
      "source": "https://sketchfab.com/3d-models/miniature-tiger-cub-7d8266ae0e764478a03c2477dde6629f",
      "title": "Miniature tiger cub"
    },
    "generator": "Sketchfab-12.68.0",
    "version": "2.0"
  },
  "bufferViews": [
    {
      "buffer": 0,
      "byteLength": 1536876,
      "name": "floatBufferViews",
      "target": 34963
    },
    {
      "buffer": 0,
      "byteLength": 563944,
      "byteOffset": 1536876,
      "byteStride": 8,
      "name": "floatBufferViews",
      "target": 34962
    },
    {
      "buffer": 0,
      "byteLength": 1691832,
      "byteOffset": 2100820,
      "byteStride": 12,
      "name": "floatBufferViews",
      "target": 34962
    },
    {
      "buffer": 0,
      "byteLength": 1127888,
      "byteOffset": 3792652,
      "byteStride": 16,
      "name": "floatBufferViews",
      "target": 34962
    }
  ],
  "buffers": [
    {
      "byteLength": 4920540,
      "uri": "scene.bin"
    }
  ],
  "images": [
    {
      "uri": "textures/Tiger_cub_baseColor.jpeg"
    },
    {
      "uri": "textures/Tiger_cub_metallicRoughness.png"
    },
    {
      "uri": "textures/Tiger_cub_normal.png"
    }
  ],
  "materials": [
    {
      "doubleSided": true,
      "name": "Tiger_cub",
      "normalTexture": {
        "index": 2
      },
      "occlusionTexture": {
        "index": 1
      },
      "pbrMetallicRoughness": {
        "baseColorTexture": {
          "index": 0
        },
        "metallicFactor": 0.0,
        "metallicRoughnessTexture": {
          "index": 1
        }
      }
    }
  ],
  "meshes": [
    {
      "name": "Object_0",
      "primitives": [
        {
          "attributes": {
            "NORMAL": 1,
            "POSITION": 0,
            "TANGENT": 2,
            "TEXCOORD_0": 3
          },
          "indices": 4,
          "material": 0,
          "mode": 4
        }
      ]
    },
    {
      "name": "Object_1",
      "primitives": [
        {
          "attributes": {
            "NORMAL": 6,
            "POSITION": 5,
            "TANGENT": 7,
            "TEXCOORD_0": 8
          },
          "indices": 9,
          "material": 0,
          "mode": 4
        }
      ]
    }
  ],
  "nodes": [
    {
      "children": [
        1
      ],
      "matrix": [
        1.0,
        0.0,
        0.0,
        0.0,
        0.0,
        2.220446049250313e-16,
        -1.0,
        0.0,
        0.0,
        1.0,
        2.220446049250313e-16,
        0.0,
        0.0,
        0.0,
        0.0,
        1.0
      ],
      "name": "Sketchfab_model"
    },
    {
      "children": [
        2,
        3
      ],
      "name": "Tiger_cub_SF.obj.cleaner.materialmerger.gles"
    },
    {
      "mesh": 0,
      "name": "Object_2"
    },
    {
      "mesh": 1,
      "name": "Object_3"
    }
  ],
  "samplers": [
    {
      "magFilter": 9729,
      "minFilter": 9987,
      "wrapS": 10497,
      "wrapT": 10497
    }
  ],
  "scene": 0,
  "scenes": [
    {
      "name": "Sketchfab_Scene",
      "nodes": [
        0
      ]
    }
  ],
  "textures": [
    {
      "sampler": 0,
      "source": 0
    },
    {
      "sampler": 0,
      "source": 1
    },
    {
      "sampler": 0,
      "source": 2
    }
  ]
}
